<?xml version="1.0" encoding="utf-8"?>
<!-- Generator: Adobe Illustrator 24.0.2, SVG Export Plug-In . SVG Version: 6.00 Build 0)  -->
<svg version="1.1" id="Layer_1" xmlns="http://www.w3.org/2000/svg" xmlns:xlink="http://www.w3.org/1999/xlink" x="0px" y="0px"
	 viewBox="0 0 471.9 178.2" style="enable-background:new 0 0 471.9 178.2;" xml:space="preserve">
<style type="text/css">
	.st0{fill:#272C47;}
	.st1{fill-rule:evenodd;clip-rule:evenodd;fill:#272C47;}
	.st2{fill-rule:evenodd;clip-rule:evenodd;fill:#FFFFFF;}
	.st3{fill-rule:evenodd;clip-rule:evenodd;fill:#00AB55;}
	.st4{fill:#00AB55;}
	.st5{fill:#FFFFFF;}
</style>
<g>
	<g>
		<g>
			<path class="st0" d="M225.6,112.2v-12h20.8v17.1L232.7,131h-44.6V45.7L202.9,32h43.5v37.3h-20.8V50.9h-16.7v61.4H225.6z"/>
			<path class="st0" d="M292.2,112.2v-12H313v17.1L299.3,131h-44.6V45.7L269.5,32H313v37.3h-20.8V50.9h-16.7v61.4H292.2z"/>
			<path class="st0" d="M372.6,32h23.9V131h-19.2V69.4L362,131h-6.2l-15.4-61.6V131h-19.2V32h23.9l13.7,49.3L372.6,32z"/>
			<path class="st0" d="M461.1,131h-54.4v-30.8h20.7v12h12.9V96.5l-32.9-24.8V32h53.1v29.4h-18.8V50.9h-13.5v12.9l33,24.8V131z"/>
		</g>
	</g>
	<g>
		<g>
			<path class="st1" d="M67.1,7.7h90.3c6.7,0,12.2,5.5,12.2,12.2v120.9c0,6.7-5.5,12.2-12.2,12.2H67.1c-6.7,0-12.2-5.5-12.2-12.2V20
				C54.8,13.2,60.4,7.7,67.1,7.7z"/>
			<path class="st2" d="M67.1,17.1h90.3c1.6,0,2.8,1.3,2.8,2.8v115.1c0,1.6-1.3,2.8-2.8,2.8H67.1c-1.6,0-2.8-1.3-2.8-2.8V20
				C64.2,18.4,65.5,17.1,67.1,17.1z"/>
			<path class="st1" d="M90.9,38.7c-1.8,0-3.3-1.5-3.3-3.3c0-1.8,1.5-3.3,3.3-3.3h51.8c1.8,0,3.3,1.5,3.3,3.3c0,1.8-1.5,3.3-3.3,3.3
				H90.9L90.9,38.7z M74.5,122.9c-1.8,0-3.3-1.5-3.3-3.3c0-1.8,1.5-3.3,3.3-3.3h60.1c1.8,0,3.3,1.5,3.3,3.3c0,1.8-1.5,3.3-3.3,3.3
				H74.5L74.5,122.9z M74.5,55.6c-1.8,0-3.3-1.5-3.3-3.3c0-1.8,1.5-3.3,3.3-3.3H150c1.8,0,3.3,1.5,3.3,3.3c0,1.8-1.5,3.3-3.3,3.3
				H74.5L74.5,55.6z M74.5,72.4c-1.8,0-3.3-1.5-3.3-3.3s1.5-3.3,3.3-3.3H150c1.8,0,3.3,1.5,3.3,3.3s-1.5,3.3-3.3,3.3H74.5L74.5,72.4
				z M74.5,89.2c-1.8,0-3.3-1.5-3.3-3.3c0-1.8,1.5-3.3,3.3-3.3H150c1.8,0,3.3,1.5,3.3,3.3c0,1.8-1.5,3.3-3.3,3.3H74.5L74.5,89.2z
				 M74.5,106.1c-1.8,0-3.3-1.5-3.3-3.3c0-1.8,1.5-3.3,3.3-3.3H150c1.8,0,3.3,1.5,3.3,3.3c0,1.8-1.5,3.3-3.3,3.3H74.5z"/>
		</g>
		<path class="st3" d="M62.4,8l55.5,16.7c4.1,1.2,7.5,6,7.5,10.5v129c0,4.5-3.4,7.2-7.5,5.9l-55.5-16.7c-4.1-1.2-7.5-6-7.5-10.5V14
			C54.8,9.5,58.2,6.8,62.4,8z"/>
		<g>
			<path class="st4" d="M42,99.7C35.6,93,29.8,86.6,23.5,79.9c-4.2,3.7-8.4,7.4-12.6,11.2c8.5,8.9,14.8,15.3,23.1,24.2
				c5.4,5.3,9.6,4.8,13.6-1.5c2.1-3.3,4.4-6.5,6.8-9.5V87.6C49.9,91.5,45.8,95.6,42,99.7z"/>
			<path class="st0" d="M113.5,62.7c-23.4,6.6-44.1,22-59.2,41.5V87.6c15.6-14.1,34.2-25.7,55.5-25.7
				C110.9,62,112.5,62.2,113.5,62.7z"/>
		</g>
	</g>
</g>
</svg>
