<?xml version="1.0" encoding="utf-8"?>
<!-- Generator: Adobe Illustrator 24.0.2, SVG Export Plug-In . SVG Version: 6.00 Build 0)  -->
<svg version="1.1" id="Layer_1" xmlns="http://www.w3.org/2000/svg" xmlns:xlink="http://www.w3.org/1999/xlink" x="0px" y="0px"
	 viewBox="0 0 64 64" style="enable-background:new 0 0 64 64;" xml:space="preserve">
<style type="text/css">
	.st0{fill:#272C47;}
	.st1{fill-rule:evenodd;clip-rule:evenodd;fill:#272C47;}
	.st2{fill-rule:evenodd;clip-rule:evenodd;fill:#FFFFFF;}
	.st3{fill-rule:evenodd;clip-rule:evenodd;fill:#00AB55;}
	.st4{fill:#00AB55;}
	.st5{fill:#FFFFFF;}
</style>
<g>
	<g>
		<path class="st1" d="M23.2,1.1h34.3c2.6,0,4.6,2.1,4.6,4.6v45.9c0,2.6-2.1,4.6-4.6,4.6H23.2c-2.6,0-4.6-2.1-4.6-4.6V5.8
			C18.6,3.2,20.7,1.1,23.2,1.1z"/>
		<path class="st2" d="M23.2,4.7h34.3c0.6,0,1.1,0.5,1.1,1.1v43.7c0,0.6-0.5,1.1-1.1,1.1H23.2c-0.6,0-1.1-0.5-1.1-1.1V5.8
			C22.1,5.2,22.6,4.7,23.2,4.7z"/>
		<path class="st1" d="M32.2,12.9c-0.7,0-1.2-0.6-1.2-1.2c0-0.7,0.6-1.2,1.2-1.2h19.7c0.7,0,1.2,0.6,1.2,1.2c0,0.7-0.6,1.2-1.2,1.2
			H32.2L32.2,12.9z M26,44.8c-0.7,0-1.2-0.6-1.2-1.2c0-0.7,0.6-1.2,1.2-1.2h22.8c0.7,0,1.2,0.6,1.2,1.2c0,0.7-0.6,1.2-1.2,1.2H26
			L26,44.8z M26,19.3c-0.7,0-1.2-0.6-1.2-1.2c0-0.7,0.6-1.2,1.2-1.2h28.7c0.7,0,1.2,0.6,1.2,1.2c0,0.7-0.6,1.2-1.2,1.2H26L26,19.3z
			 M26,25.7c-0.7,0-1.2-0.6-1.2-1.2c0-0.7,0.6-1.2,1.2-1.2h28.7c0.7,0,1.2,0.6,1.2,1.2c0,0.7-0.6,1.2-1.2,1.2H26L26,25.7z M26,32.1
			c-0.7,0-1.2-0.6-1.2-1.2c0-0.7,0.6-1.2,1.2-1.2h28.7c0.7,0,1.2,0.6,1.2,1.2c0,0.7-0.6,1.2-1.2,1.2H26L26,32.1z M26,38.4
			c-0.7,0-1.2-0.6-1.2-1.2c0-0.7,0.6-1.2,1.2-1.2h28.7c0.7,0,1.2,0.6,1.2,1.2c0,0.7-0.6,1.2-1.2,1.2H26z"/>
	</g>
	<path class="st3" d="M21.4,1.2l21.1,6.3c1.6,0.5,2.9,2.3,2.9,4v49c0,1.7-1.3,2.7-2.9,2.3l-21.1-6.3c-1.6-0.5-2.9-2.3-2.9-4v-49
		C18.6,1.8,19.8,0.8,21.4,1.2z"/>
	<g>
		<path class="st4" d="M13.7,36c-2.4-2.5-4.6-5-7-7.5c-1.6,1.4-3.2,2.8-4.8,4.2c3.2,3.4,5.6,5.8,8.8,9.2c2.1,2,3.6,1.8,5.2-0.6
			c0.8-1.2,1.7-2.5,2.6-3.6v-6.3C16.7,32.9,15.1,34.5,13.7,36z"/>
		<path class="st0" d="M40.8,22c-8.9,2.5-16.8,8.4-22.5,15.7v-6.3c5.9-5.3,13-9.8,21.1-9.7C39.9,21.7,40.4,21.8,40.8,22z"/>
	</g>
</g>
</svg>
